<?xml version="1.0" standalone="no"?>
<!DOCTYPE svg PUBLIC "-//W3C//DTD SVG 20010904//EN"
 "http://www.w3.org/TR/2001/REC-SVG-20010904/DTD/svg10.dtd">
<svg version="1.0" xmlns="http://www.w3.org/2000/svg"
 width="600.000000pt" height="600.000000pt" viewBox="0 0 600.000000 600.000000"
 preserveAspectRatio="xMidYMid meet">
<metadata>
Created by potrace 1.11, written by Peter Selinger 2001-2013
</metadata>
<g transform="translate(0.000000,600.000000) scale(0.100000,-0.100000)"
fill="#000000" stroke="none">
<path d="M2333 5283 c-33 -6 -79 -57 -87 -95 -4 -18 -6 -121 -6 -229 2 -226 8
-251 74 -283 76 -37 171 -13 202 52 15 32 18 67 18 247 0 232 -6 258 -64 294
-28 17 -91 23 -137 14z m94 -95 c14 -22 13 -405 -1 -424 -15 -20 -65 -22 -77
-3 -10 17 -10 9 -11 231 0 129 3 182 12 193 15 18 66 20 77 3z"/>
<path d="M4112 5274 c-43 -22 -69 -75 -69 -139 0 -66 23 -110 97 -181 69 -66
90 -100 90 -141 0 -40 -25 -73 -51 -68 -35 7 -49 26 -49 67 l0 39 -42 -3 -43
-3 1 -54 c3 -87 54 -136 142 -132 88 3 131 49 137 147 5 68 -28 137 -94 196
-26 24 -58 57 -71 75 -38 53 -25 123 24 123 35 0 49 -16 49 -54 l0 -36 49 0
48 0 -6 38 c-9 63 -24 96 -51 116 -36 27 -118 32 -161 10z"/>
<path d="M1830 5031 c0 -271 -1 -276 -59 -276 -22 -1 -25 -5 -28 -43 -2 -34 1
-42 15 -43 72 -7 122 10 149 50 16 23 18 55 20 294 l1 267 -49 0 -49 0 0 -249z"/>
<path d="M2859 5278 c-1 -2 -2 -139 -3 -305 l-1 -303 42 0 43 0 2 217 3 217
23 -89 c13 -50 25 -94 26 -100 1 -5 15 -63 31 -127 l29 -118 51 0 50 0 0 305
0 305 -42 0 -43 0 -2 -176 -3 -176 -45 176 -44 176 -58 0 c-32 0 -59 -1 -59
-2z"/>
<path d="M3480 4975 l0 -305 48 -1 c89 -2 206 1 210 6 8 7 7 75 0 76 -5 1 -39
2 -77 3 -38 0 -72 4 -76 8 -9 9 -12 169 -3 174 4 3 35 5 68 5 l60 1 0 43 0 44
-67 3 -68 3 2 74 c1 40 5 76 8 79 3 3 39 5 79 4 81 -2 86 2 78 61 l-4 27 -129
0 -129 0 0 -305z"/>
<path d="M1583 4362 c-7 -7 -13 -18 -13 -23 0 -6 -9 -29 -19 -52 -11 -23 -67
-157 -126 -297 -58 -140 -113 -268 -120 -285 -8 -16 -44 -102 -80 -190 -37
-88 -75 -179 -86 -202 -10 -24 -19 -45 -19 -49 0 -3 -11 -29 -24 -57 -13 -29
-51 -117 -84 -197 -34 -80 -69 -163 -78 -185 -10 -22 -18 -42 -19 -45 -1 -3
-6 -16 -12 -30 -51 -118 -50 -117 -52 -332 l-1 -208 369 0 369 0 0 -291 c0
-160 3 -293 6 -296 4 -4 319 -7 396 -4 13 1 15 39 15 294 l0 292 133 3 132 3
0 209 0 209 -132 3 -133 3 0 868 c0 477 -2 868 -5 868 -3 1 -95 2 -204 3 -154
1 -202 -2 -213 -12z m6 -1312 l-1 -420 -169 0 c-93 0 -169 2 -169 5 0 5 55
145 75 190 7 17 68 168 136 338 67 169 123 307 125 307 1 0 3 -189 3 -420z"/>
<path d="M3065 4368 c-147 -19 -256 -71 -360 -170 -143 -135 -210 -311 -219
-572 -1 -47 0 -89 3 -94 3 -5 96 -9 207 -9 l202 1 1 85 c1 116 7 145 48 229
64 132 202 180 331 116 101 -51 152 -148 152 -288 0 -73 -26 -201 -55 -271
-84 -201 -172 -344 -430 -703 -297 -413 -438 -621 -459 -676 -12 -33 -15 -381
-3 -393 5 -4 1265 -8 1310 -4 4 1 7 93 7 206 l0 205 -405 0 c-223 0 -405 3
-405 6 0 14 278 436 530 804 210 306 281 475 309 735 28 257 -50 474 -227 635
-64 59 -195 133 -252 144 -14 2 -36 7 -50 10 -41 10 -171 13 -235 4z"/>
<path d="M4583 4345 c-73 -145 -261 -281 -427 -309 -16 -3 -32 -10 -35 -15 -7
-11 -5 -266 2 -278 3 -4 80 -7 172 -7 137 2 167 -1 172 -13 3 -8 6 -485 7
-1061 l1 -1047 208 0 207 0 0 1380 0 1380 -146 0 -146 0 -15 -30z"/>
<path d="M2102 1268 c-34 -9 -63 -54 -57 -87 2 -9 4 -22 4 -28 1 -7 24 -38 52
-69 41 -46 50 -61 47 -87 -2 -26 -7 -31 -23 -29 -24 5 -35 20 -28 39 3 8 -2
13 -16 13 -12 0 -24 1 -28 3 -18 5 -8 -57 12 -81 27 -32 87 -34 116 -5 44 44
29 120 -36 182 -52 49 -59 101 -14 101 14 0 19 -7 19 -25 0 -21 5 -25 31 -25
26 0 29 3 25 20 -3 11 -9 29 -12 40 -8 31 -52 49 -92 38z"/>
<path d="M1729 1243 c-1 -37 -1 -283 0 -305 1 -16 12 -18 76 -18 74 0 75 0 73
25 -2 23 -6 25 -49 25 l-47 0 -1 54 c0 51 1 53 27 54 49 0 52 2 52 28 0 22 -4
25 -28 23 -40 -5 -52 7 -50 52 1 34 4 40 22 38 60 -4 76 1 76 25 0 22 -3 23
-75 25 l-75 2 -1 -28z"/>
<path d="M2370 1242 c0 -24 4 -28 27 -27 l28 0 0 -145 0 -145 27 -3 27 -3 3
148 3 148 26 3 c20 2 27 9 27 27 0 23 -3 24 -84 24 l-84 0 0 -27z"/>
<path d="M3224 1255 c-5 -13 -35 -28 -59 -30 -16 0 -11 -40 5 -41 8 -1 21 -2
28 -2 9 -2 12 -36 12 -133 l0 -130 28 3 27 3 1 160 c0 88 -2 166 -4 173 -6 17
-31 15 -38 -3z"/>
<path d="M3496 1255 c-22 -17 -34 -134 -18 -176 12 -29 55 -43 84 -28 16 9 18
5 18 -30 0 -30 -5 -43 -20 -51 -17 -9 -22 -7 -32 15 -11 25 -41 34 -53 14 -4
-5 -2 -23 5 -39 21 -50 99 -60 136 -19 14 16 18 40 19 132 2 122 -6 165 -32
185 -23 16 -83 15 -107 -3z m82 -79 c4 -51 -5 -86 -23 -86 -26 0 -33 30 -26
116 1 10 9 14 24 12 18 -2 23 -10 25 -42z"/>
<path d="M3841 1246 c-20 -21 -23 -35 -23 -117 -1 -150 1 -165 20 -187 36 -41
122 -29 137 19 10 30 10 229 0 259 -11 34 -34 49 -76 50 -25 0 -42 -7 -58 -24z
m85 -143 c2 -124 -9 -159 -38 -129 -13 12 -16 38 -16 123 1 60 3 112 5 116 3
5 15 7 26 5 21 -3 22 -8 23 -115z"/>
<path d="M4182 1250 c-12 -12 -23 -33 -23 -48 -3 -62 1 -114 11 -131 14 -27
58 -36 80 -16 16 15 17 13 16 -32 -1 -42 -4 -48 -24 -51 -16 -3 -25 2 -28 15
-3 11 -15 20 -30 21 -50 4 -20 -81 33 -91 41 -8 91 17 99 48 6 23 8 148 5 236
-2 62 -91 94 -139 49z m84 -87 c1 -34 -3 -56 -12 -64 -22 -18 -44 7 -44 51 0
54 9 72 34 68 18 -3 21 -10 22 -55z"/>
<path d="M2670 945 c0 -21 5 -25 28 -25 23 0 28 4 28 25 0 21 -5 25 -28 25
-23 0 -28 -4 -28 -25z"/>
</g>
</svg>
